<svg id="_002-logo" data-name="002-logo" xmlns="http://www.w3.org/2000/svg" width="512" height="512" viewBox="0 0 512 512">
  <path id="Path_4" data-name="Path 4" d="M384.469,477H277v-6a7.5,7.5,0,0,0-7.5-7.5h-27A7.5,7.5,0,0,0,235,471v6H55V464.5a7.5,7.5,0,0,0-7.5-7.5H35V277h6a7.5,7.5,0,0,0,7.5-7.5v-27A7.5,7.5,0,0,0,41,235H35V55H47.5A7.5,7.5,0,0,0,55,47.5V35H96.533a7.5,7.5,0,1,0,0-15H55V7.5A7.5,7.5,0,0,0,47.5,0H7.5A7.5,7.5,0,0,0,0,7.5v40A7.5,7.5,0,0,0,7.5,55H20V235H14a7.5,7.5,0,0,0-7.5,7.5v27A7.5,7.5,0,0,0,14,277h6V457H7.5A7.5,7.5,0,0,0,0,464.5v40A7.5,7.5,0,0,0,7.5,512h40a7.5,7.5,0,0,0,7.5-7.5V492H235v6a7.5,7.5,0,0,0,7.5,7.5h27A7.5,7.5,0,0,0,277,498v-6H384.469a7.5,7.5,0,0,0,0-15ZM15,15H40V40H15Zm6.5,235h12v12h-12ZM40,497H15V472H40Zm222-6.5H250v-12h12Z" fill="#d5424b"/>
  <path id="Path_5" data-name="Path 5" d="M504.5,55a7.5,7.5,0,0,0,7.5-7.5V7.5A7.5,7.5,0,0,0,504.5,0h-40A7.5,7.5,0,0,0,457,7.5V20H277V14a7.5,7.5,0,0,0-7.5-7.5h-27A7.5,7.5,0,0,0,235,14v6H132.594a7.5,7.5,0,0,0,0,15H235v6a7.5,7.5,0,0,0,7.5,7.5h27A7.5,7.5,0,0,0,277,41V35H457V47.5a7.5,7.5,0,0,0,7.5,7.5H477V235h-6a7.5,7.5,0,0,0-7.5,7.5v27A7.5,7.5,0,0,0,471,277h6V457H464.5a7.5,7.5,0,0,0-7.5,7.5V477H419.526a7.5,7.5,0,0,0,0,15H457v12.5a7.5,7.5,0,0,0,7.5,7.5h40a7.5,7.5,0,0,0,7.5-7.5v-40a7.5,7.5,0,0,0-7.5-7.5H492V277h6a7.5,7.5,0,0,0,7.5-7.5v-27A7.5,7.5,0,0,0,498,235h-6V55ZM262,33.5H250v-12h12ZM497,497H472V472h25Zm-6.5-235h-12V250h12ZM472,15h25V40H472Z" fill="#d5424b"/>
  <path id="Path_6" data-name="Path 6" d="M79.287,426.2A12.421,12.421,0,0,0,89.4,431.427h85.856a19.849,19.849,0,0,0,18.513-12.868L215.6,359.816h80.946l21.593,58.674a19.8,19.8,0,0,0,18.538,12.938H422.6a12.4,12.4,0,0,0,11.7-16.5L321.639,93.764a19.784,19.784,0,0,0-18.63-13.193H208.991a19.786,19.786,0,0,0-18.633,13.2L77.7,414.923A12.414,12.414,0,0,0,79.287,426.2ZM204.508,98.749a4.763,4.763,0,0,1,4.482-3.179h45.36c1.584.069,3.054.692,4.479,3.169l28.267,80.58a7.5,7.5,0,0,0,14.155-4.965L273.614,95.57h29.394a4.759,4.759,0,0,1,4.479,3.169L418.926,416.427H386.05c-.108-.505-73.17-208.919-73.17-208.919a7.5,7.5,0,1,0-14.155,4.965l71.543,203.954h-33.59a4.755,4.755,0,0,1-4.457-3.106l-23.4-63.6a7.5,7.5,0,0,0-7.039-4.91H161.732a7.5,7.5,0,0,0-7.03,4.888l-6.139,16.52a7.5,7.5,0,1,0,14.06,5.225l4.323-11.632H199.6l-19.886,53.51a4.781,4.781,0,0,1-4.456,3.1H145.907l4.446-11.963a7.5,7.5,0,1,0-14.06-5.225l-5.237,14.09a4.753,4.753,0,0,1-4.454,3.1H93.072Z" fill="#d5424b"/>
  <path id="Path_7" data-name="Path 7" d="M178.057,309.809H285.639a7.5,7.5,0,0,0,7.077-9.982L238.755,145.973a7.5,7.5,0,0,0-7.078-5.018h-.007a7.5,7.5,0,0,0-7.075,5.032l-53.62,153.854a7.5,7.5,0,0,0,7.082,9.968Zm59.213-15L256.1,240.76l18.957,54.049ZM231.7,171.18l16.435,46.86-26.749,76.769H188.613Z" fill="#d5424b"/>
</svg>
