<svg id="_004-printer" data-name="004-printer" xmlns="http://www.w3.org/2000/svg" width="430.58" height="430.58" viewBox="0 0 430.58 430.58">
  <path id="Path_10" data-name="Path 10" d="M385.728,221.29H331.905a8.97,8.97,0,0,1,0-17.941h53.823a26.944,26.944,0,0,0,26.911-26.911V50.852a26.944,26.944,0,0,0-26.911-26.911H44.852A26.944,26.944,0,0,0,17.941,50.852V176.438a26.944,26.944,0,0,0,26.911,26.911H98.675a8.97,8.97,0,0,1,0,17.941H44.852A44.9,44.9,0,0,1,0,176.438V50.852A44.9,44.9,0,0,1,44.852,6H385.728A44.9,44.9,0,0,1,430.58,50.852V176.438A44.9,44.9,0,0,1,385.728,221.29Z" transform="translate(0 101.645)" fill="#d5424b"/>
  <path id="Path_11" data-name="Path 11" d="M124.615,37.941H16.97A8.97,8.97,0,0,1,16.97,20H124.615a8.97,8.97,0,1,1,0,17.941Z" transform="translate(135.527 338.817)" fill="#d5424b"/>
  <path id="Path_12" data-name="Path 12" d="M124.615,35.941H16.97A8.97,8.97,0,1,1,16.97,18H124.615a8.97,8.97,0,1,1,0,17.941Z" transform="translate(135.527 304.935)" fill="#d5424b"/>
  <path id="Path_13" data-name="Path 13" d="M52.852,33.941H16.97A8.97,8.97,0,1,1,16.97,16H52.852a8.97,8.97,0,0,1,0,17.941Z" transform="translate(135.527 271.053)" fill="#d5424b"/>
  <path id="Path_14" data-name="Path 14" d="M247.2,125.586a8.974,8.974,0,0,1-8.97-8.97V44.852A26.944,26.944,0,0,0,211.32,17.941H49.852A26.944,26.944,0,0,0,22.941,44.852v71.763a8.97,8.97,0,0,1-17.941,0V44.852A44.9,44.9,0,0,1,49.852,0H211.32a44.9,44.9,0,0,1,44.852,44.852v71.763A8.974,8.974,0,0,1,247.2,125.586Z" transform="translate(84.704)" fill="#d5424b"/>
  <path id="Path_15" data-name="Path 15" d="M211.32,210.349H49.852A44.9,44.9,0,0,1,5,165.5V21.97A8.974,8.974,0,0,1,13.97,13H247.2a8.974,8.974,0,0,1,8.97,8.97V165.5A44.9,44.9,0,0,1,211.32,210.349ZM22.941,30.941V165.5a26.944,26.944,0,0,0,26.911,26.911H211.32A26.944,26.944,0,0,0,238.231,165.5V30.941Z" transform="translate(84.704 220.231)" fill="#d5424b"/>
</svg>
