<svg xmlns="http://www.w3.org/2000/svg" width="463.151" height="512.009" viewBox="0 0 463.151 512.009">
  <g id="_003-web-design" data-name="003-web-design" transform="translate(-24.43 0)">
    <path id="Path_8" data-name="Path 8" d="M447.183,66.584h-6.075A43.77,43.77,0,0,0,367.37,19.441L335.824,66.585h-271a40.443,40.443,0,0,0-40.4,40.4V365.256a40.443,40.443,0,0,0,40.4,40.4H221.741l-11.856,49.8H184.3a30.279,30.279,0,0,0-30.245,30.244v6.315H122.506a10,10,0,0,0,0,20h267a10,10,0,1,0,0-20H357.96v-6.315a30.279,30.279,0,0,0-30.245-30.244H302.126l-11.856-49.8H447.184a40.443,40.443,0,0,0,40.4-40.4V106.981a40.443,40.443,0,0,0-40.4-40.4ZM303.9,242.383c-15.635,10.945-44.926-3.932-72.9,10.994-6.825-35.455-2.522-68.8,33-76.16a63.655,63.655,0,0,1,13.742-1.306l36.176,26.841c5.249,15.268,3.279,30.32-10.023,39.631Zm10.078-107.188,28.307,21-21.769,26.541-25.628-19.015ZM383.993,30.564a23.769,23.769,0,1,1,38.132,28.293c-15.325,18.683-51.759,63.1-67.142,81.859l-29.87-22.162Zm-46.034,455.13v6.315H174.051v-6.315A10.257,10.257,0,0,1,184.3,475.45H327.714a10.257,10.257,0,0,1,10.245,10.244ZM281.566,455.45H230.444l11.856-49.8h27.41Zm186.015-90.194a20.42,20.42,0,0,1-20.4,20.4H64.828a20.42,20.42,0,0,1-20.4-20.4v-46.83H73.007a10,10,0,0,0,0-20H44.429V106.981a20.42,20.42,0,0,1,20.4-20.4H322.441c-9.58,14.317-37.529,56.085-46.382,69.314-19.6.177-39.162,7-51.97,21.956-17.429,20.345-20.491,52.313-9.1,95.015a10.008,10.008,0,0,0,16.571,4.652c25.857-24.707,58.061,2.243,86.9-21.1,17.6-14.25,21.77-36.9,15.132-58.088l91.658-111.75h21.933a20.42,20.42,0,0,1,20.4,20.4V298.425H153a10,10,0,1,0,0,20H467.581Z" fill="#d5424b"/>
    <path id="Path_9" data-name="Path 9" d="M111.075,298.619a10,10,0,1,0,11.76,7.851,9.989,9.989,0,0,0-11.76-7.851Z" fill="#d5424b"/>
  </g>
</svg>
