<svg width="120" height="10" viewBox="0 0 120 10" fill="none" xmlns="http://www.w3.org/2000/svg">
<g clip-path="url(#clip0)">
<path d="M1 5C7 -0.333333 13 -0.333333 19 5C25 10.3333 31 10.3333 37 5C43 -0.333333 49 -0.333333 55 5C61 10.3333 67 10.3333 73 5C79 -0.333333 85 -0.333333 91 5C97 10.3333 103 10.3333 109 5C115 -0.333333 121 -0.333333 127 5C133 10.3333 139 10.3333 145 5C151 -0.333333 157 -0.333333 163 5C169 10.3333 175 10.3333 181 5" stroke="#D8D8EB" stroke-width="2"/>
</g>
<defs>
<clipPath id="clip0">
<rect width="120" height="10" fill="white"/>
</clipPath>
</defs>
</svg>
