<svg width="48" height="48" viewBox="0 0 48 48" fill="none" xmlns="http://www.w3.org/2000/svg">
<path d="M30 41.9999V34.9999C30 32.9999 30.2 32.1999 29 30.9999C34.6 30.3999 40 28.1999 40 18.9999C39.9976 16.6098 39.0651 14.3145 37.4 12.5999C38.1809 10.5238 38.109 8.22316 37.2 6.1999C37.2 6.1999 35 5.5999 30.2 8.7999C26.1345 7.74108 21.8655 7.74108 17.8 8.7999C13 5.5999 10.8 6.1999 10.8 6.1999C9.89096 8.22316 9.81907 10.5238 10.6 12.5999C8.93491 14.3145 8.00244 16.6098 8 18.9999C8 28.1999 13.4 30.3999 19 30.9999C17.8 32.1999 17.8 33.3999 18 34.9999V41.9999M18 37.9999C9.4 40.7999 9.4 32.9999 6 31.9999L18 37.9999Z" stroke="#4543E8" stroke-width="3" stroke-linecap="round" stroke-linejoin="round"/>
</svg>
