<svg xmlns="http://www.w3.org/2000/svg" width="511.985" height="512" viewBox="0 0 511.985 512">
  <g id="_001-booking" data-name="001-booking" transform="translate(-0.007)">
    <path id="Path_1" data-name="Path 1" d="M125.613,482.444H170c25.73,0,25.768-40.088,0-40.088H125.613c-25.729,0-25.767,40.088,0,40.088Zm0-25.088H170c6.52,0,6.52,10.088,0,10.088H125.613c-6.519,0-6.519-10.088,0-10.088Z" fill="#d5424b"/>
    <path id="Path_2" data-name="Path 2" d="M180.7,257.79l-48.859,48.86-16.921-16.922c-6.859-6.854-17.464,3.749-10.607,10.607l22.225,22.225q5.3,4.392,10.607,0L191.3,268.4c6.856-6.858-3.749-17.461-10.608-10.607Z" fill="#d5424b"/>
    <path id="Path_3" data-name="Path 3" d="M506.429,331.8a78.687,78.687,0,0,1-6.712-18.467,380.815,380.815,0,0,0-33.023-88.1l-24.407-46.586C428.471,152.271,387.7,156.656,380,185.583c-18.259-6.569-38.871,4.228-43.864,22.98A34.04,34.04,0,0,0,295.6,223.412V29.3A29.338,29.338,0,0,0,266.3,0H91.58c-9.7,0-9.7,15,0,15H266.3a14.32,14.32,0,0,1,14.3,14.3v21.92H15.007V29.3A14.319,14.319,0,0,1,29.31,15H49.581c9.7,0,9.7-15,0-15H29.31A29.337,29.337,0,0,0,.007,29.3V482.7A29.337,29.337,0,0,0,29.31,512H266.3a29.337,29.337,0,0,0,29.3-29.3v-92.53l26.8,13.256a33.947,33.947,0,0,1,15.328,15.36c11.906,24.2,42.422,34.226,66.392,21.667l44.685-23.41c8.59-4.5,1.629-17.786-6.961-13.287l-44.685,23.41a34.078,34.078,0,0,1-45.972-15,49.04,49.04,0,0,0-22.137-22.183L215.322,333.721c-21.361-10.375-5.913-43.886,15.781-33.768l41.3,21.739c6.371,3.354,13.478-3.738,10.137-10.116L210.8,174.644c-11.78-22.146,19.767-42.588,31.8-19.616l50.708,96.788L306.55,277.1c4.372,8.349,17.775,1.607,13.287-6.961l-12.895-24.613c-5.222-17.4,16.261-31.431,30.088-19.3l14.349,27.388c4.372,8.349,17.775,1.607,13.287-6.961L350.076,218.8c-1.365-16,18.227-26.295,30.612-15.742l14.442,27.568c4.372,8.349,17.775,1.607,13.287-6.961L393.972,196.1c-1.965-19.635,25.67-28.352,35.026-10.491L453.4,232.191a365.865,365.865,0,0,1,31.722,84.622,89.316,89.316,0,0,0,8.014,21.942A33.809,33.809,0,0,1,478.9,384.34c-8.589,4.5-1.627,17.788,6.961,13.287A48.823,48.823,0,0,0,506.429,331.8ZM280.6,482.7A14.32,14.32,0,0,1,266.3,497H29.31a14.319,14.319,0,0,1-14.3-14.3V427.708H280.6ZM192.849,302.4a33.888,33.888,0,0,0,2.532,33.335,65.883,65.883,0,1,1,18.065-51.071,34.244,34.244,0,0,0-20.6,17.736ZM247.3,137.564a33.6,33.6,0,0,0-11.185-5.991C212.1,124.066,187.9,146.1,193.189,170.7H50.8a2.5,2.5,0,0,1-2.5-2.5V114.6a2.5,2.5,0,0,1,2.5-2.5h194a2.5,2.5,0,0,1,2.5,2.5Zm33.3,57.688-18.3-34.927V114.6a17.521,17.521,0,0,0-17.5-17.5H50.8a17.521,17.521,0,0,0-17.5,17.5v53.6a17.521,17.521,0,0,0,17.5,17.5H199.653L258.07,297.2l-20.126-10.6c-.089-.047-.18-.093-.271-.136A33.726,33.726,0,0,0,228.4,283.6a80.851,80.851,0,1,0-22.015,62.358c23.794,13.712,49.6,24.615,74.214,36.792v29.96H15.007V66.223H280.6Z" fill="#d5424b"/>
  </g>
</svg>
